<svg xmlns="http://www.w3.org/2000/svg" xmlns:xlink="http://www.w3.org/1999/xlink" width="50" height="50" viewBox="0 0 50 50">
    <defs>
        <path id="a" d="M25 50c13.807 0 25-11.193 25-25S38.807 0 25 0 0 11.193 0 25s11.193 25 25 25zm11.252-33.983L20.854 31.746l-7.143-7.242a1.523 1.523 0 0 0-2.147.04 1.604 1.604 0 0 0-.038 2.192l8.235 8.358a1.523 1.523 0 0 0 2.185 0l16.49-16.845a1.603 1.603 0 0 0 0-2.232 1.523 1.523 0 0 0-2.184 0z"/>
    </defs>
    <g fill="none" fill-rule="evenodd">
        <mask id="b" fill="#fff">
            <use xlink:href="#a"/>
        </mask>
        <g fill="#7ED321" mask="url(#b)">
            <path d="M0 0h50v50H0z"/>
        </g>
    </g>
</svg>
